<mxfile host="app.diagrams.net" agent="Mozilla/5.0 (Macintosh; Intel Mac OS X 10_15_7) AppleWebKit/537.36 (KHTML, like Gecko) Chrome/140.0.0.0 Safari/537.36" version="28.2.1">
  <diagram name="v1" id="xovJX9cgDdjwenQ59o3J">
    <mxGraphModel dx="543" dy="385" grid="1" gridSize="10" guides="1" tooltips="1" connect="1" arrows="1" fold="1" page="1" pageScale="1" pageWidth="1169" pageHeight="827" math="0" shadow="0">
      <root>
        <mxCell id="0" />
        <mxCell id="1" parent="0" />
        <mxCell id="OWfDD9AzahrzfmDPsGC5-4" value="Sylvans" style="pointerEvents=1;shadow=0;dashed=0;strokeColor=none;fillColor=#4495D1;labelPosition=center;verticalLabelPosition=bottom;verticalAlign=top;align=center;outlineConnect=0;shape=mxgraph.veeam.cluster;fontFamily=Verdana;fontSize=9;fontStyle=0;textShadow=0;whiteSpace=wrap;" parent="1" vertex="1">
          <mxGeometry x="425" y="40" width="160" height="90" as="geometry" />
        </mxCell>
        <mxCell id="OWfDD9AzahrzfmDPsGC5-28" value="" style="group;fontFamily=Verdana;fontSize=9;fontStyle=0;textShadow=0;whiteSpace=wrap;" parent="1" vertex="1" connectable="0">
          <mxGeometry x="440" y="320" width="120" height="153.25" as="geometry" />
        </mxCell>
        <mxCell id="OWfDD9AzahrzfmDPsGC5-29" value="" style="rounded=1;movable=1;resizable=1;rotatable=1;deletable=1;editable=1;locked=0;connectable=1;fontSize=9;shadow=0;glass=0;fillColor=#fff2cc;strokeColor=#d6b656;fontFamily=Verdana;fontStyle=0;textShadow=0;whiteSpace=wrap;" parent="OWfDD9AzahrzfmDPsGC5-28" vertex="1">
          <mxGeometry width="120" height="153.25" as="geometry" />
        </mxCell>
        <mxCell id="OWfDD9AzahrzfmDPsGC5-30" value="Bare metal node" style="sketch=0;aspect=fixed;pointerEvents=1;shadow=0;dashed=0;strokeColor=none;labelPosition=center;verticalLabelPosition=bottom;verticalAlign=top;align=center;fillColor=#00188D;shape=mxgraph.azure.server;movable=1;resizable=1;rotatable=1;deletable=1;editable=1;locked=0;connectable=1;fontSize=9;fontFamily=Verdana;fontStyle=0;textShadow=0;whiteSpace=wrap;" parent="OWfDD9AzahrzfmDPsGC5-28" vertex="1">
          <mxGeometry x="26.090909090909065" y="94.30769230769232" width="67.82223861331367" height="20.3466715839941" as="geometry" />
        </mxCell>
        <mxCell id="OWfDD9AzahrzfmDPsGC5-31" value="Sprite(s)" style="sketch=0;outlineConnect=0;fontColor=#232F3E;gradientColor=none;fillColor=#ED7100;strokeColor=none;dashed=0;verticalLabelPosition=bottom;verticalAlign=top;align=center;fontSize=9;fontStyle=0;aspect=fixed;pointerEvents=1;shape=mxgraph.aws4.ecs_service;movable=1;resizable=1;rotatable=1;deletable=1;editable=1;locked=0;connectable=1;fontFamily=Verdana;textShadow=0;whiteSpace=wrap;" parent="OWfDD9AzahrzfmDPsGC5-28" vertex="1">
          <mxGeometry x="46.0363636363636" y="23.001876172607865" width="27.92467637838834" height="34.363267564078924" as="geometry" />
        </mxCell>
        <mxCell id="OWfDD9AzahrzfmDPsGC5-38" value="" style="group;fontFamily=Verdana;fontSize=9;fontStyle=0;textShadow=0;whiteSpace=wrap;" parent="1" vertex="1" connectable="0">
          <mxGeometry x="600" y="10" width="140" height="80" as="geometry" />
        </mxCell>
        <mxCell id="OWfDD9AzahrzfmDPsGC5-36" value="" style="shape=mxgraph.basic.cloud_callout;fontSize=9;fontFamily=Verdana;fontStyle=0;textShadow=0;whiteSpace=wrap;" parent="OWfDD9AzahrzfmDPsGC5-38" vertex="1">
          <mxGeometry width="140" height="80" as="geometry" />
        </mxCell>
        <mxCell id="OWfDD9AzahrzfmDPsGC5-37" value="In cloud/premise" style="text;align=center;verticalAlign=middle;rounded=0;fontSize=9;fontFamily=Verdana;fontStyle=0;textShadow=0;whiteSpace=wrap;" parent="OWfDD9AzahrzfmDPsGC5-38" vertex="1">
          <mxGeometry x="15" y="20" width="110" height="30" as="geometry" />
        </mxCell>
        <mxCell id="30TTn7z32rPU5H1xWPmD-1" value="&lt;h1 style=&quot;margin-top: 0px;&quot;&gt;v1&lt;/h1&gt;&lt;p&gt;- Sprites and sylvans are visible to each other&lt;/p&gt;&lt;p&gt;- Sprite implements edge logic:&lt;/p&gt;&lt;p&gt;+&amp;nbsp;&lt;span style=&quot;background-color: transparent; color: light-dark(rgb(0, 0, 0), rgb(255, 255, 255));&quot;&gt;Run a gRPC server for sylvan to control&lt;/span&gt;&lt;/p&gt;&lt;p&gt;+ Create / destroy / start / stop / monitor VM&lt;/p&gt;&lt;p&gt;+ Send heartbeats to sylvan&lt;/p&gt;&lt;p&gt;+ Aggregate metrics to serve sylvan&lt;/p&gt;&lt;p&gt;+ Send alerts to sylvan when encounter issues (e.g CPU too high, RAM not enough)&lt;/p&gt;&lt;p&gt;- Sylvan implements orchestrator logic:&lt;/p&gt;&lt;p&gt;+ Run a REST API server for sprites and other actors to interact&lt;/p&gt;&lt;p&gt;+ Periodically collect metrics from sprites by hitting gRPC metric endpoint&lt;/p&gt;&lt;p&gt;+ Make gRPC calls to sprites to reconcile the states (e.g add VM if it is not there)&lt;/p&gt;&lt;p&gt;- No auth mechanism (to be implemented in future)&lt;/p&gt;&lt;p&gt;- 1 sylvan manages all sprites (distributed sylvans in future scope)&lt;/p&gt;&lt;p&gt;- If possible, offer option to enable provisioned VMs as Kubernetes nodes&lt;/p&gt;" style="text;html=1;whiteSpace=wrap;overflow=hidden;rounded=0;fontSize=9;" vertex="1" parent="1">
          <mxGeometry x="10" y="10" width="350" height="340" as="geometry" />
        </mxCell>
      </root>
    </mxGraphModel>
  </diagram>
</mxfile>
